# WaveFront *.obj file (generated by Autodesk ATF)

g Body1

v 0.000000 0.114300 0.000000
v 0.000000 0.000000 0.000000
v 0.000000 0.000000 0.031750
v 0.000000 0.114300 0.031750
v 0.075000 0.120000 0.000000
v 0.075000 0.120000 0.031750
v 0.140000 0.055000 0.000000
v 0.140000 0.055000 0.031750
v 0.127000 0.000000 0.000000
v 0.127000 0.000000 0.031750
vt -0.000000 0.000000 0.000000
vt 11.430000 0.000000 0.000000
vt -0.000000 3.175000 0.000000
vt 11.430000 3.175000 0.000000
vt -0.000000 0.000000 0.000000
vt 7.521629 0.000000 0.000000
vt -0.000000 3.175000 0.000000
vt 7.521629 3.175000 0.000000
vt 0.000000 0.000000 0.000000
vt 9.192388 0.000000 0.000000
vt 0.000000 3.175000 0.000000
vt 9.192388 3.175000 0.000000
vt 0.000000 0.000000 0.000000
vt 5.651548 0.000000 0.000000
vt 0.000000 3.175000 0.000000
vt 5.651548 3.175000 0.000000
vt 0.000000 0.000000 0.000000
vt 12.700000 0.000000 0.000000
vt 0.000000 3.175000 0.000000
vt 12.700000 3.175000 0.000000
vt 5.700000 -6.000000 0.000000
vt 7.000000 -0.500000 0.000000
vt -7.000000 -6.000000 0.000000
vt 0.500000 6.000000 0.000000
vt -7.000000 5.430000 0.000000
vt -5.700000 -6.000000 0.000000
vt 7.000000 -6.000000 0.000000
vt -7.000000 -0.500000 0.000000
vt -0.500000 6.000000 0.000000
vt 7.000000 5.430000 0.000000
vn -100.000000 0.000000 0.000000
vn -100.000000 0.000000 0.000000
vn -100.000000 0.000000 0.000000
vn -100.000000 0.000000 0.000000
vn -7.578146 99.712445 0.000000
vn -7.578146 99.712445 0.000000
vn -7.578146 99.712445 0.000000
vn -7.578146 99.712445 0.000000
vn 70.710678 70.710678 0.000000
vn 70.710678 70.710678 0.000000
vn 70.710678 70.710678 0.000000
vn 70.710678 70.710678 0.000000
vn 97.318461 -23.002545 0.000000
vn 97.318461 -23.002545 0.000000
vn 97.318461 -23.002545 0.000000
vn 97.318461 -23.002545 0.000000
vn 0.000000 -100.000000 0.000000
vn 0.000000 -100.000000 0.000000
vn 0.000000 -100.000000 0.000000
vn 0.000000 -100.000000 0.000000
vn 0.000000 0.000000 100.000000
vn 0.000000 0.000000 100.000000
vn 0.000000 0.000000 100.000000
vn 0.000000 0.000000 100.000000
vn 0.000000 0.000000 100.000000
vn 0.000000 0.000000 -100.000000
vn 0.000000 0.000000 -100.000000
vn 0.000000 0.000000 -100.000000
vn 0.000000 0.000000 -100.000000
vn 0.000000 0.000000 -100.000000
f 1/1/1 2/2/2 4/3/3
f 4/3/3 2/2/2 3/4/4
f 5/5/5 1/6/6 6/7/7
f 6/7/7 1/6/6 4/8/8
f 7/9/9 5/10/10 8/11/11
f 8/11/11 5/10/10 6/12/12
f 9/13/13 7/14/14 10/15/15
f 10/15/15 7/14/14 8/16/16
f 2/17/17 9/18/18 3/19/19
f 3/19/19 9/18/18 10/20/20
f 10/21/21 8/22/22 3/23/23
f 3/23/23 8/22/22 6/24/24
f 3/23/23 6/24/24 4/25/25
f 9/26/26 2/27/27 7/28/28
f 7/28/28 2/27/27 5/29/29
f 5/29/29 2/27/27 1/30/30
# 10 vertices
# 30 texture params
# 30 normals
# 16 facets

# 1 groups
